; NON-PLATED HOLES START AT T1
; THROUGH (PLATED) HOLES START AT T100
M48
INCH
T1C0.118110
T100C0.036000
T101C0.035000
T102C0.088356
T103C0.041361
T104C0.042251
T105C0.038000
T106C0.041333
T107C0.031497
%
T1
X003694Y002727
X047694Y016727
X033694Y016727
X047694Y002727
X003694Y032727
X033694Y032727
T100
X018650Y010724
X009694Y006727
X012694Y006727
X009694Y012727
X004694Y012727
X011694Y006727
X007694Y006727
X018650Y008722
X011694Y012727
X013694Y012727
X018650Y009724
X015694Y006727
X005694Y006727
X007694Y012727
X018694Y012727
X019650Y008722
X019650Y009724
X005694Y012727
X006694Y006727
X008694Y012727
X012694Y012727
X017694Y006727
X006694Y012727
X004694Y006727
X017694Y012727
X014694Y012727
X015694Y012727
X016694Y012727
X010694Y006727
X019650Y010724
X008694Y006727
X016694Y006727
X010694Y012727
X018694Y006727
X013694Y006727
X014694Y006727
T101
X022922Y009286
X035694Y012727
X005694Y024727
X034694Y006727
X017694Y025727
X007694Y025727
X028694Y020286
X012694Y025727
X028694Y009727
X041694Y012727
X017694Y021727
X003922Y027286
X024694Y009286
X006694Y016727
X041694Y008727
X028694Y016727
X012694Y004727
X005694Y027286
X007694Y021727
X006694Y014727
X012694Y021727
X003922Y024727
X022922Y006727
X038694Y006727
X026922Y012727
X024694Y006727
X023694Y003727
X026922Y017727
X011694Y003727
X010694Y016727
X026922Y015286
X005694Y018727
X035694Y008727
X005694Y015727
X028694Y017727
X016694Y031727
X028694Y015286
X028694Y012727
X016694Y017727
X026922Y020286
X023694Y013727
X011694Y018727
X043694Y008727
X034694Y004727
T102
X025753Y024774
X029636Y024774
T103
X026694Y027727
T104
X023775Y032449
X022775Y032449
X021775Y032449
T105
X003694Y017727
X016694Y004727
X003694Y016727
X003694Y019727
X015694Y004727
X003694Y018727
T106
X027694Y027727
X028694Y027727
T107
X009694Y025742
X040694Y007727
X009694Y026727
X040694Y006742
X037694Y013727
X014694Y025742
X043694Y012742
X019694Y025742
X019694Y026727
X014694Y026727
X037694Y012742
X043694Y013727
T00
M30
