G04 MADE WITH FRITZING*
G04 WWW.FRITZING.ORG*
G04 DOUBLE SIDED*
G04 HOLES PLATED*
G04 CONTOUR ON CENTER OF CONTOUR VECTOR*
%ASAXBY*%
%FSLAX23Y23*%
%MOIN*%
%OFA0B0*%
%SFA1.0B1.0*%
%ADD10C,0.075000*%
%ADD11C,0.070000*%
%ADD12C,0.078000*%
%ADD13C,0.062992*%
%ADD14C,0.074667*%
%ADD15C,0.074695*%
%ADD16C,0.124033*%
%ADD17C,0.073749*%
%ADD18R,0.070000X0.069958*%
%ADD19R,0.062992X0.062992*%
%LNCOPPER1*%
G90*
G70*
G54D10*
X669Y1473D03*
X3469Y473D03*
X1269Y473D03*
X2869Y1673D03*
X1169Y373D03*
X2869Y973D03*
X669Y1673D03*
X1069Y1673D03*
X569Y1873D03*
X1169Y1873D03*
X569Y1573D03*
X4369Y873D03*
X1669Y3173D03*
X1669Y1773D03*
X2369Y1373D03*
X2369Y373D03*
G54D11*
X1869Y1273D03*
X1769Y1273D03*
X1669Y1273D03*
X1569Y1273D03*
X1469Y1273D03*
X1369Y1273D03*
X1269Y1273D03*
X1169Y1273D03*
X1069Y1273D03*
X969Y1273D03*
X869Y1273D03*
X769Y1273D03*
X669Y1273D03*
X569Y1273D03*
X469Y1273D03*
X1869Y673D03*
X1769Y673D03*
X1669Y673D03*
X1569Y673D03*
X1469Y673D03*
X1369Y673D03*
X1269Y673D03*
X1169Y673D03*
X1069Y673D03*
X969Y673D03*
X869Y673D03*
X769Y673D03*
X669Y673D03*
X569Y673D03*
X469Y673D03*
X1965Y1072D03*
X1865Y1072D03*
X1965Y972D03*
X1865Y972D03*
X1965Y872D03*
X1865Y872D03*
G54D12*
X1569Y473D03*
X1669Y473D03*
X369Y1973D03*
X369Y1873D03*
X369Y1773D03*
X369Y1673D03*
G54D13*
X4069Y674D03*
X4069Y773D03*
X969Y2574D03*
X969Y2673D03*
X1469Y2574D03*
X1469Y2673D03*
X1969Y2574D03*
X1969Y2673D03*
X4369Y1274D03*
X4369Y1373D03*
X3769Y1274D03*
X3769Y1373D03*
G54D10*
X3469Y673D03*
X3869Y673D03*
X769Y2173D03*
X769Y2573D03*
X1269Y2173D03*
X1269Y2573D03*
X1769Y2173D03*
X1769Y2573D03*
X4169Y873D03*
X4169Y1273D03*
X3569Y873D03*
X3569Y1273D03*
G54D14*
X2869Y2773D03*
X2769Y2773D03*
G54D15*
X2669Y2773D03*
G54D16*
X2964Y2477D03*
X2575Y2477D03*
G54D10*
X2292Y673D03*
X2292Y929D03*
X2469Y673D03*
X2469Y929D03*
X2692Y1773D03*
X2692Y2029D03*
X2869Y1773D03*
X2869Y2029D03*
X392Y2473D03*
X392Y2729D03*
X569Y2473D03*
X569Y2729D03*
X2692Y1273D03*
X2692Y1529D03*
X2869Y1273D03*
X2869Y1529D03*
G54D17*
X2178Y3245D03*
X2278Y3245D03*
X2378Y3245D03*
G54D18*
X1869Y1273D03*
G54D19*
X4069Y674D03*
X969Y2574D03*
X1469Y2574D03*
X1969Y2574D03*
X4369Y1274D03*
X3769Y1274D03*
G04 End of Copper1*
M02*