G04 MADE WITH FRITZING*
G04 WWW.FRITZING.ORG*
G04 DOUBLE SIDED*
G04 HOLES PLATED*
G04 CONTOUR ON CENTER OF CONTOUR VECTOR*
%ASAXBY*%
%FSLAX23Y23*%
%MOIN*%
%OFA0B0*%
%SFA1.0B1.0*%
%ADD10C,0.075000*%
%ADD11C,0.070000*%
%ADD12C,0.078000*%
%ADD13C,0.062992*%
%ADD14C,0.074667*%
%ADD15C,0.074695*%
%ADD16C,0.124033*%
%ADD17C,0.073749*%
%ADD18R,0.070000X0.069958*%
%ADD19R,0.062992X0.062992*%
%ADD20C,0.032000*%
%LNCOPPER0*%
G90*
G70*
G54D10*
X669Y1473D03*
X3469Y473D03*
X1269Y473D03*
X2869Y1673D03*
X1169Y373D03*
X2869Y973D03*
X669Y1673D03*
X1069Y1673D03*
X569Y1873D03*
X1169Y1873D03*
X569Y1573D03*
X4369Y873D03*
X1669Y3173D03*
X1669Y1773D03*
X2369Y1373D03*
X2369Y373D03*
G54D11*
X1869Y1273D03*
X1769Y1273D03*
X1669Y1273D03*
X1569Y1273D03*
X1469Y1273D03*
X1369Y1273D03*
X1269Y1273D03*
X1169Y1273D03*
X1069Y1273D03*
X969Y1273D03*
X869Y1273D03*
X769Y1273D03*
X669Y1273D03*
X569Y1273D03*
X469Y1273D03*
X1869Y673D03*
X1769Y673D03*
X1669Y673D03*
X1569Y673D03*
X1469Y673D03*
X1369Y673D03*
X1269Y673D03*
X1169Y673D03*
X1069Y673D03*
X969Y673D03*
X869Y673D03*
X769Y673D03*
X669Y673D03*
X569Y673D03*
X469Y673D03*
X1965Y1072D03*
X1865Y1072D03*
X1965Y972D03*
X1865Y972D03*
X1965Y872D03*
X1865Y872D03*
G54D12*
X1569Y473D03*
X1669Y473D03*
X369Y1973D03*
X369Y1873D03*
X369Y1773D03*
X369Y1673D03*
G54D13*
X4069Y674D03*
X4069Y773D03*
X969Y2574D03*
X969Y2673D03*
X1469Y2574D03*
X1469Y2673D03*
X1969Y2574D03*
X1969Y2673D03*
X4369Y1274D03*
X4369Y1373D03*
X3769Y1274D03*
X3769Y1373D03*
G54D10*
X3469Y673D03*
X3869Y673D03*
X769Y2173D03*
X769Y2573D03*
X1269Y2173D03*
X1269Y2573D03*
X1769Y2173D03*
X1769Y2573D03*
X4169Y873D03*
X4169Y1273D03*
X3569Y873D03*
X3569Y1273D03*
G54D14*
X2869Y2773D03*
X2769Y2773D03*
G54D15*
X2669Y2773D03*
G54D16*
X2964Y2477D03*
X2575Y2477D03*
G54D10*
X2292Y673D03*
X2292Y929D03*
X2469Y673D03*
X2469Y929D03*
X2692Y1773D03*
X2692Y2029D03*
X2869Y1773D03*
X2869Y2029D03*
X392Y2473D03*
X392Y2729D03*
X569Y2473D03*
X569Y2729D03*
X2692Y1273D03*
X2692Y1529D03*
X2869Y1273D03*
X2869Y1529D03*
G54D17*
X2178Y3245D03*
X2278Y3245D03*
X2378Y3245D03*
G54D18*
X1869Y1273D03*
G54D19*
X4069Y674D03*
X969Y2574D03*
X1469Y2574D03*
X1969Y2574D03*
X4369Y1274D03*
X3769Y1274D03*
G54D20*
X1443Y2574D02*
X1298Y2573D01*
D02*
X1798Y2573D02*
X1943Y2574D01*
D02*
X943Y2574D02*
X798Y2573D01*
D02*
X4198Y1273D02*
X4343Y1274D01*
D02*
X3898Y673D02*
X4043Y674D01*
D02*
X3743Y1274D02*
X3598Y1273D01*
D02*
X769Y1302D02*
X769Y2144D01*
D02*
X870Y2174D02*
X1241Y2173D01*
D02*
X869Y1302D02*
X870Y2174D01*
D02*
X1768Y1972D02*
X1769Y2144D01*
D02*
X968Y1972D02*
X1768Y1972D01*
D02*
X969Y1302D02*
X968Y1972D01*
D02*
X1569Y503D02*
X1569Y644D01*
D02*
X1469Y1244D02*
X1469Y1071D01*
D02*
X1469Y1071D02*
X269Y1071D01*
D02*
X269Y1071D02*
X269Y1772D01*
D02*
X269Y1772D02*
X339Y1773D01*
D02*
X1069Y702D02*
X1069Y873D01*
D02*
X1069Y873D02*
X170Y873D01*
D02*
X170Y873D02*
X170Y1974D01*
D02*
X170Y1974D02*
X339Y1973D01*
D02*
X3070Y773D02*
X3541Y867D01*
D02*
X2169Y773D02*
X3070Y773D01*
D02*
X1991Y860D02*
X2169Y773D01*
D02*
X1770Y572D02*
X1770Y644D01*
D02*
X1691Y494D02*
X1770Y572D01*
D02*
X1769Y1072D02*
X1769Y702D01*
D02*
X1836Y1072D02*
X1769Y1072D01*
D02*
X2468Y1171D02*
X2469Y957D01*
D02*
X2169Y1172D02*
X2468Y1171D01*
D02*
X1869Y1173D02*
X2169Y1172D01*
D02*
X1866Y1102D02*
X1869Y1173D01*
D02*
X1970Y2974D02*
X1970Y2700D01*
D02*
X1471Y2974D02*
X1970Y2974D01*
D02*
X1470Y2700D02*
X1471Y2974D01*
D02*
X1970Y2974D02*
X1970Y2700D01*
D02*
X2169Y2974D02*
X1970Y2974D01*
D02*
X2169Y1172D02*
X2169Y2974D01*
D02*
X2468Y1171D02*
X2666Y1261D01*
D02*
X2469Y957D02*
X2468Y1171D01*
D02*
X2271Y1072D02*
X2288Y957D01*
D02*
X1994Y1072D02*
X2271Y1072D01*
D02*
X468Y2974D02*
X968Y2974D01*
D02*
X968Y2974D02*
X969Y2700D01*
D02*
X401Y2756D02*
X468Y2974D01*
D02*
X1471Y2974D02*
X1470Y2700D01*
D02*
X968Y2974D02*
X1471Y2974D01*
D02*
X969Y2700D02*
X968Y2974D01*
D02*
X2368Y3372D02*
X2375Y3277D01*
D02*
X71Y774D02*
X71Y3071D01*
D02*
X71Y3071D02*
X1469Y3071D01*
D02*
X1469Y3071D02*
X1469Y3372D01*
D02*
X1469Y3372D02*
X2368Y3372D01*
D02*
X567Y772D02*
X71Y774D01*
D02*
X569Y702D02*
X567Y772D01*
D02*
X1970Y2974D02*
X1970Y2700D01*
D02*
X2169Y2974D02*
X1970Y2974D01*
D02*
X2266Y3215D02*
X2169Y2974D01*
D02*
X3770Y1071D02*
X3069Y1174D01*
D02*
X3770Y272D02*
X3770Y1071D01*
D02*
X3069Y1174D02*
X3069Y2172D01*
D02*
X2768Y2172D02*
X2769Y2741D01*
D02*
X3069Y2172D02*
X2768Y2172D01*
D02*
X970Y272D02*
X3770Y272D01*
D02*
X969Y644D02*
X970Y272D01*
D02*
X2170Y2972D02*
X2266Y3215D01*
D02*
X2871Y2972D02*
X2170Y2972D01*
D02*
X2870Y2805D02*
X2871Y2972D01*
D02*
X3168Y1372D02*
X3168Y2774D01*
D02*
X3168Y2774D02*
X2901Y2773D01*
D02*
X3743Y1373D02*
X3168Y1372D01*
D02*
X4070Y1372D02*
X3796Y1373D01*
D02*
X4069Y800D02*
X4070Y1372D01*
D02*
X4070Y1372D02*
X3796Y1373D01*
D02*
X4343Y1373D02*
X4070Y1372D01*
D02*
X2692Y1744D02*
X2692Y1557D01*
D02*
X3469Y644D02*
X3469Y501D01*
D02*
X669Y1273D02*
X669Y1444D01*
D02*
X656Y1299D02*
X669Y1273D01*
D02*
X2869Y1744D02*
X2869Y1701D01*
D02*
X1269Y644D02*
X1269Y501D01*
D02*
X671Y2272D02*
X670Y1701D01*
D02*
X582Y2447D02*
X671Y2272D01*
D02*
X1069Y1671D02*
X1064Y1645D01*
D02*
X1069Y1302D02*
X1069Y1671D01*
D02*
X400Y1873D02*
X541Y1873D01*
D02*
X1170Y1472D02*
X1170Y1844D01*
D02*
X1170Y1302D02*
X1170Y1472D01*
D02*
X569Y1544D02*
X569Y1302D01*
D02*
X4198Y873D02*
X4341Y873D01*
D02*
X2146Y3240D02*
X1698Y3177D01*
D02*
X1268Y1472D02*
X1647Y1756D01*
D02*
X1269Y1302D02*
X1268Y1472D01*
D02*
X2869Y1244D02*
X2869Y1001D01*
D02*
X1169Y644D02*
X1169Y401D01*
D02*
X1570Y373D02*
X2341Y373D01*
D02*
X1570Y443D02*
X1570Y373D01*
D02*
X2370Y2773D02*
X2369Y1401D01*
D02*
X2638Y2773D02*
X2370Y2773D01*
D02*
X371Y1273D02*
X370Y1643D01*
D02*
X1371Y1172D02*
X469Y1172D01*
D02*
X469Y1172D02*
X371Y1273D01*
D02*
X1370Y1244D02*
X1371Y1172D01*
D02*
X371Y1172D02*
X368Y1167D01*
G04 End of Copper0*
M02*